<svg width="35" height="20" viewBox="0 0 35 20" fill="none" xmlns="http://www.w3.org/2000/svg">
<g clip-path="url(#clip0_3006_1601)">
<path d="M15 4.99988C15 3.6738 14.4732 2.40203 13.5355 1.46434C12.5979 0.526662 11.3261 -0.00012207 10 -0.00012207C8.67392 -0.00012207 7.40215 0.526662 6.46447 1.46434C5.52678 2.40203 5 3.6738 5 4.99988H0V17.4999C0 18.1629 0.263392 18.7988 0.732233 19.2676C1.20107 19.7365 1.83696 19.9999 2.5 19.9999H17.5C18.163 19.9999 18.7989 19.7365 19.2678 19.2676C19.7366 18.7988 20 18.1629 20 17.4999V4.99988H15ZM10 1.66654C10.8841 1.66654 11.7319 2.01773 12.357 2.64286C12.9821 3.26798 13.3333 4.11582 13.3333 4.99988H6.66667C6.66667 4.11582 7.01786 3.26798 7.64298 2.64286C8.2681 2.01773 9.11594 1.66654 10 1.66654ZM18.3333 17.4999C18.3333 17.7209 18.2455 17.9329 18.0893 18.0891C17.933 18.2454 17.721 18.3332 17.5 18.3332H2.5C2.27899 18.3332 2.06702 18.2454 1.91074 18.0891C1.75446 17.9329 1.66667 17.7209 1.66667 17.4999V6.66654H5V8.33321H6.66667V6.66654H13.3333V8.33321H15V6.66654H18.3333V17.4999Z" fill="white"/>
</g>
<path d="M32.252 10.205C32.252 10.9003 32.1992 11.5214 32.0938 12.0682C31.9883 12.6151 31.8223 13.078 31.5957 13.4569C31.3691 13.8358 31.0762 14.1249 30.7168 14.3241C30.3574 14.5194 29.9258 14.6171 29.4219 14.6171C28.7852 14.6171 28.2578 14.4432 27.8398 14.0956C27.4258 13.7479 27.1152 13.246 26.9082 12.5897C26.7051 11.9296 26.6035 11.1346 26.6035 10.205C26.6035 9.29089 26.6953 8.50574 26.8789 7.84949C27.0664 7.18933 27.3672 6.68347 27.7812 6.33191C28.1953 5.97644 28.7422 5.79871 29.4219 5.79871C30.0664 5.79871 30.5977 5.97449 31.0156 6.32605C31.4336 6.67371 31.7441 7.17761 31.9473 7.83777C32.1504 8.49402 32.252 9.28308 32.252 10.205ZM27.582 10.205C27.582 11.0018 27.6426 11.6659 27.7637 12.1971C27.8848 12.7284 28.0801 13.1268 28.3496 13.3925C28.623 13.6542 28.9805 13.785 29.4219 13.785C29.8633 13.785 30.2188 13.6542 30.4883 13.3925C30.7617 13.1307 30.959 12.7343 31.0801 12.203C31.2051 11.6718 31.2676 11.0057 31.2676 10.205C31.2676 9.4198 31.207 8.76355 31.0859 8.23621C30.9648 7.70496 30.7695 7.30652 30.5 7.04089C30.2305 6.77136 29.8711 6.6366 29.4219 6.6366C28.9727 6.6366 28.6133 6.77136 28.3438 7.04089C28.0742 7.30652 27.8789 7.70496 27.7578 8.23621C27.6406 8.76355 27.582 9.4198 27.582 10.205Z" fill="white"/>
<defs>
<clipPath id="clip0_3006_1601">
<rect width="20" height="20" fill="white"/>
</clipPath>
</defs>
</svg>
